<?xml version="1.0" standalone="no"?>
<!DOCTYPE svg PUBLIC "-//W3C//DTD SVG 20010904//EN"
 "http://www.w3.org/TR/2001/REC-SVG-20010904/DTD/svg10.dtd">
<svg version="1.0" xmlns="http://www.w3.org/2000/svg"
 width="512.000000pt" height="512.000000pt" viewBox="0 0 512.000000 512.000000"
 preserveAspectRatio="xMidYMid meet">
<metadata>
Created by potrace 1.16, written by Peter Selinger 2001-2019
</metadata>
<g transform="translate(0.000000,512.000000) scale(0.100000,-0.100000)"
fill="#000000" stroke="none">
<path d="M303 5052 c-86 -74 -272 -269 -286 -299 -33 -73 41 -14 241 191 78
80 142 151 142 156 0 23 -34 6 -97 -48z"/>
<path d="M503 5051 c-104 -90 -480 -475 -488 -500 -12 -37 2 -35 52 7 72 60
533 529 533 541 0 24 -33 8 -97 -48z"/>
<path d="M703 5051 c-112 -97 -680 -674 -687 -699 -23 -71 24 -29 442 391 188
189 342 349 342 356 0 24 -32 8 -97 -48z"/>
<path d="M903 5051 c-116 -100 -880 -875 -888 -899 -22 -72 19 -35 543 491
243 244 442 449 442 455 0 25 -32 10 -97 -47z"/>
<path d="M1103 5051 c-118 -102 -1080 -1075 -1088 -1099 -11 -38 2 -37 52 6
79 66 1133 1127 1133 1140 0 25 -32 10 -97 -47z"/>
<path d="M1303 5051 c-119 -104 -1280 -1275 -1288 -1299 -11 -38 2 -37 52 6
80 67 1333 1327 1333 1340 0 25 -32 10 -97 -47z"/>
<path d="M1503 5051 c-121 -105 -1480 -1475 -1488 -1499 -11 -38 2 -37 52 6
81 68 1533 1527 1533 1540 0 25 -32 10 -97 -47z"/>
<path d="M1703 5051 c-121 -105 -1680 -1675 -1688 -1699 -11 -38 2 -37 52 6
81 68 1733 1727 1733 1740 0 25 -32 10 -97 -47z"/>
<path d="M1903 5051 c-122 -106 -1881 -1875 -1888 -1899 -11 -38 2 -37 52 6
82 69 1933 1927 1933 1940 0 25 -32 10 -97 -47z"/>
<path d="M2128 5074 c-61 -50 -1987 -1974 -2059 -2057 -54 -62 -72 -97 -50
-97 5 0 54 43 110 96 l101 96 0 -64 c0 -64 0 -64 -51 -113 -119 -116 -193
-215 -160 -215 5 0 54 43 110 96 l101 96 0 -64 c0 -64 0 -64 -51 -113 -119
-116 -193 -215 -160 -215 5 0 54 43 110 96 l101 96 0 -64 c0 -64 0 -64 -51
-113 -119 -116 -193 -215 -160 -215 5 0 54 43 110 96 l101 96 0 -64 c0 -64 0
-64 -51 -113 -119 -116 -193 -215 -160 -215 5 0 54 43 110 96 l101 96 0 -64
c0 -64 0 -64 -51 -113 -119 -116 -193 -215 -160 -215 5 0 54 43 110 96 l101
96 0 -64 c0 -64 0 -64 -51 -113 -119 -116 -193 -215 -160 -215 5 0 54 43 110
96 l101 96 0 -64 c0 -64 0 -64 -51 -113 -119 -116 -193 -215 -160 -215 5 0 54
43 110 96 l101 96 0 -64 c0 -64 0 -64 -51 -113 -119 -116 -193 -215 -160 -215
5 0 54 43 110 96 l101 96 0 -64 c0 -64 0 -64 -51 -113 -119 -116 -193 -215
-160 -215 5 0 54 43 110 96 l101 96 0 -64 c0 -64 0 -64 -51 -113 -119 -116
-193 -215 -160 -215 5 0 54 43 110 96 l101 96 0 -64 c0 -64 0 -64 -51 -113
-119 -116 -193 -215 -160 -215 5 0 54 43 110 96 l101 96 0 -64 c0 -64 0 -64
-51 -113 -119 -116 -193 -215 -160 -215 5 0 54 43 110 96 l101 96 0 -64 c0
-64 0 -64 -51 -113 -119 -116 -193 -215 -160 -215 5 0 54 43 110 96 l101 96 0
-64 c0 -64 0 -64 -51 -113 -119 -116 -193 -215 -160 -215 5 0 57 46 116 102
94 90 108 100 117 84 6 -10 18 -26 27 -35 16 -15 10 -24 -96 -134 -62 -65
-113 -122 -113 -127 0 -34 97 39 220 164 l54 56 64 0 64 0 -101 -106 c-56 -58
-101 -110 -101 -115 0 -33 98 40 220 165 l54 56 64 0 64 0 -101 -106 c-56 -58
-101 -110 -101 -115 0 -33 98 40 220 165 l54 56 64 0 64 0 -101 -106 c-56 -58
-101 -110 -101 -115 0 -33 98 40 220 165 l54 56 64 0 64 0 -101 -106 c-56 -58
-101 -110 -101 -115 0 -33 98 40 220 165 l54 56 64 0 64 0 -101 -106 c-56 -58
-101 -110 -101 -115 0 -33 98 40 220 165 l54 56 64 0 64 0 -101 -106 c-56 -58
-101 -110 -101 -115 0 -33 98 40 220 165 l54 56 64 0 64 0 -101 -106 c-56 -58
-101 -110 -101 -115 0 -33 98 40 220 165 l54 56 64 0 64 0 -101 -106 c-56 -58
-101 -110 -101 -115 0 -33 98 40 220 165 l54 56 64 0 64 0 -101 -106 c-56 -58
-101 -110 -101 -115 0 -33 98 40 220 165 l54 56 64 0 64 0 -101 -106 c-56 -58
-101 -110 -101 -115 0 -33 98 40 220 165 l54 56 64 0 64 0 -101 -106 c-56 -58
-101 -110 -101 -115 0 -33 98 40 220 165 l54 56 64 0 64 0 -101 -106 c-56 -58
-101 -110 -101 -115 0 -33 98 40 220 165 l54 56 64 0 64 0 -101 -106 c-56 -58
-101 -110 -101 -115 0 -33 98 40 220 165 l54 56 64 0 64 0 -101 -106 c-56 -58
-101 -110 -101 -115 0 -33 98 40 220 165 39 40 62 56 81 56 32 0 59 28 59 61
0 19 199 222 886 909 487 487 912 915 945 953 57 65 72 97 47 97 -7 0 -438
-425 -958 -945 -520 -520 -950 -945 -956 -945 -7 0 -29 7 -49 16 l-38 16 975
976 c536 537 989 994 1006 1015 33 39 41 67 20 67 -7 0 -472 -459 -1033 -1020
l-1021 -1020 -48 16 -48 17 1049 1051 c577 578 1064 1068 1081 1089 33 39 41
67 20 67 -7 0 -505 -492 -1108 -1094 l-1095 -1094 -40 15 c-22 9 -42 18 -45
20 -2 2 500 509 1116 1126 616 617 1135 1139 1152 1160 33 39 41 67 20 67 -7
0 -537 -525 -1179 -1166 l-1167 -1166 -38 12 c-22 7 -43 15 -48 18 -15 8 553
570 626 618 69 45 98 76 98 104 0 8 360 375 801 815 440 440 827 830 860 868
57 65 72 97 47 97 -7 0 -400 -387 -874 -861 -769 -769 -864 -860 -881 -850
-11 5 -38 8 -59 4 -37 -5 13 47 862 898 495 497 915 921 932 942 33 39 41 67
20 67 -7 0 -447 -434 -978 -964 l-965 -964 -66 -11 c-36 -6 -70 -11 -75 -11
-5 0 450 460 1012 1023 561 562 1035 1039 1052 1060 33 39 41 67 20 67 -7 0
-501 -488 -1098 -1084 l-1085 -1084 -50 -7 c-27 -3 -61 -9 -75 -12 -17 -3 359
380 1116 1138 627 629 1155 1161 1172 1182 33 39 41 67 20 67 -7 0 -663 -651
-1459 -1446 -1099 -1099 -1448 -1442 -1453 -1429 -12 32 -6 62 25 111 18 29
600 620 1433 1454 771 773 1417 1422 1434 1443 33 39 41 67 20 67 -7 0 -627
-615 -1379 -1366 l-1367 -1367 -16 31 c-8 16 -21 32 -28 35 -8 3 571 590 1363
1383 756 759 1390 1396 1407 1417 33 39 41 67 20 67 -7 0 -656 -643 -1443
-1430 l-1430 -1430 -65 0 -65 0 1476 1478 c811 812 1490 1494 1507 1515 33 39
41 67 20 67 -6 0 -242 -230 -525 -512 -416 -415 -513 -507 -513 -487 0 13 -7
35 -16 48 -17 23 -14 26 493 535 280 281 524 528 541 549 33 39 41 67 20 67
-6 0 -257 -245 -558 -545 l-546 -545 -32 33 -32 33 328 327 c240 240 333 327
350 327 34 0 215 179 247 245 14 28 51 76 81 106 125 121 198 219 165 219 -5
0 -57 -45 -115 -100 l-105 -101 -19 43 -20 43 102 105 c57 58 117 122 134 143
32 37 41 67 22 67 -5 0 -74 -63 -153 -140 l-144 -139 -31 32 -32 33 126 124
c200 199 274 290 233 290 -5 0 -97 -85 -203 -190 l-192 -189 -32 31 -31 32
174 178 c96 97 175 182 175 188 0 39 -92 -34 -275 -219 l-109 -111 -33 32 -32
31 124 129 c69 71 125 133 125 138 0 19 -30 10 -67 -22 -21 -17 -79 -71 -128
-120 l-90 -88 -52 12 -51 12 94 99 c52 54 94 103 94 108 0 23 -35 4 -102 -53
-40 -35 -302 -294 -582 -576 l-510 -512 -33 32 -33 32 530 531 c291 292 530
537 530 543 0 21 -28 13 -67 -20 -21 -17 -261 -253 -533 -524 l-495 -492 -58
5 -59 6 506 507 c278 278 506 512 506 518 0 21 -28 13 -67 -20 -21 -17 -692
-684 -1491 -1482 l-1453 -1451 6 70 7 70 1399 1400 c769 770 1399 1406 1399
1413 0 25 -32 10 -97 -47 -38 -33 -666 -658 -1397 -1389 -1261 -1262 -1331
-1330 -1350 -1316 -11 8 -34 14 -51 14 -27 0 113 142 1333 1363 749 749 1362
1368 1362 1375 0 21 -28 13 -67 -20 -21 -17 -682 -675 -1469 -1461 -1429
-1427 -1432 -1430 -1465 -1423 -76 14 -78 11 156 246 121 121 225 220 231 220
19 0 64 41 64 58 0 9 529 546 1175 1192 646 647 1175 1181 1175 1188 0 21 -28
13 -67 -20 -21 -17 -539 -531 -1150 -1142 -612 -611 -1113 -1107 -1113 -1102
0 5 5 39 11 75 l11 66 1054 1055 c580 581 1054 1061 1054 1068 0 21 -28 13
-67 -20 -21 -17 -485 -477 -1030 -1022 -546 -545 -993 -986 -993 -981 0 6 5
39 11 75 l10 65 934 935 c514 515 935 941 935 948 0 21 -28 13 -67 -20 -21
-17 -431 -423 -910 -902 -627 -625 -873 -865 -873 -850 0 12 -9 32 -19 45
l-20 24 845 845 c464 465 844 851 844 858 0 22 -27 13 -72 -24 -23 -19 -570
-562 -1214 -1205 l-1171 -1171 -18 47 -17 47 1146 1147 c630 631 1146 1152
1146 1159 0 25 -32 10 -97 -47 -38 -33 -549 -541 -1138 -1130 -588 -589 -1073
-1071 -1076 -1071 -4 0 -12 21 -19 46 l-13 46 1071 1072 c590 589 1072 1077
1072 1084 0 25 -32 10 -97 -47 -38 -33 -518 -509 -1068 -1060 l-999 -1001 -19
47 -18 47 1000 1001 c551 550 1001 1006 1001 1013 0 21 -28 13 -67 -20 -21
-17 -468 -461 -994 -986 l-957 -955 -20 44 -20 44 929 930 c511 512 929 936
929 943 0 22 -27 13 -72 -24z m1992 -536 l29 -33 -82 -82 c-75 -76 -85 -83
-121 -83 -39 0 -47 -7 -261 -220 -175 -175 -223 -218 -233 -208 -10 10 54 79
310 335 178 178 324 323 326 323 1 0 15 -15 32 -32z m48 -215 l-82 -83 -33 32
-33 32 82 83 82 83 33 -32 33 -32 -82 -83z m100 -100 l-82 -83 -33 32 -33 32
82 83 82 83 33 -32 33 -32 -82 -83z m100 -100 l-82 -83 -33 32 -33 32 82 83
82 83 33 -32 33 -32 -82 -83z m150 14 l32 -33 -328 -324 c-180 -179 -227 -224
-104 -99 203 206 222 228 222 260 0 18 -5 41 -10 49 -7 12 9 34 73 98 45 45
82 82 82 82 1 0 15 -15 33 -33z m-1468 -303 c12 -13 3 -26 -60 -89 -63 -63
-76 -72 -93 -63 -10 5 -37 8 -58 6 l-39 -4 112 113 113 113 6 -30 c4 -16 12
-37 19 -46z m85 -84 l29 -30 -74 -75 -74 -75 -33 32 -33 32 72 73 c40 40 75
73 78 73 4 0 19 -14 35 -30z m100 -100 l29 -30 -74 -75 -74 -75 -33 32 -33 32
72 73 c40 40 75 73 78 73 4 0 19 -14 35 -30z m-566 -107 c-95 -99 -347 -403
-496 -598 -34 -44 -271 -289 -528 -545 l-467 -465 5 69 5 69 758 758 c418 418
761 759 764 759 2 0 -16 -21 -41 -47z m666 7 l29 -31 -444 -442 c-244 -243
-415 -408 -380 -367 116 135 250 282 437 477 165 172 184 196 181 223 -2 25 8
40 67 100 38 38 72 70 75 70 4 0 19 -14 35 -30z m100 -100 l29 -31 -664 -665
c-366 -366 -678 -674 -693 -686 -22 -16 -31 -17 -42 -8 -8 7 -15 16 -15 19 0
4 27 45 61 92 42 58 251 274 672 697 337 336 614 612 618 612 3 0 18 -14 34
-30z m100 -100 l29 -30 -79 -80 c-44 -44 -88 -80 -99 -80 -11 0 -89 -69 -190
-168 -185 -181 -333 -318 -491 -453 -283 -242 -251 -204 260 309 291 293 532
532 536 532 3 0 18 -14 34 -30z m100 -100 l29 -30 -74 -75 -74 -75 -33 32 -33
32 72 73 c40 40 75 73 78 73 4 0 19 -14 35 -30z m100 -100 l29 -30 -74 -75
-74 -75 -33 32 -33 32 72 73 c40 40 75 73 78 73 4 0 19 -14 35 -30z m-2691
-49 c-14 -27 -28 -68 -31 -92 -5 -41 -17 -56 -207 -246 -110 -112 -204 -203
-208 -203 -3 0 -13 19 -21 43 l-15 42 252 253 c138 138 252 252 253 252 1 0
-9 -22 -23 -49z m2793 -49 l32 -28 -89 -89 c-70 -70 -90 -85 -90 -68 0 11 -9
31 -19 44 l-20 24 72 73 c39 39 74 72 77 72 3 -1 19 -13 37 -28z m-2807 -216
l12 -38 -193 -194 c-106 -106 -196 -191 -199 -189 -4 2 -13 22 -20 45 l-14 41
194 194 c107 107 197 191 201 187 4 -4 12 -24 19 -46z m71 -122 l22 -36 -210
-210 -210 -210 -17 48 -16 48 197 198 c109 109 201 198 205 198 3 0 16 -16 29
-36z m760 -211 c-43 -65 -94 -145 -114 -178 -24 -40 -125 -149 -306 -330
l-271 -270 0 65 0 65 382 382 c211 211 384 383 384 383 1 0 -33 -53 -75 -117z
m809 -678 l-645 -645 -65 0 -65 0 415 416 c347 348 437 432 550 517 152 113
425 331 435 347 3 5 9 10 13 10 4 0 -283 -290 -638 -645z m-1118 147 l-63
-128 -168 -168 -169 -169 5 69 5 69 226 228 c125 125 227 227 227 227 0 0 -28
-58 -63 -128z m608 -456 l-345 -344 -69 -5 -69 -5 249 250 c215 215 261 256
339 303 50 29 122 74 160 99 39 25 72 46 75 46 3 0 -150 -155 -340 -344z
m-765 94 c-34 -93 -36 -95 -145 -204 l-112 -111 7 70 6 70 137 137 c75 76 137
136 139 135 1 -2 -13 -45 -32 -97z m420 -239 l-210 -210 -70 -6 -70 -7 155
157 c154 155 155 156 275 215 66 32 122 59 125 59 3 1 -90 -93 -205 -208z
m-475 17 c0 -7 9 -21 20 -33 l20 -21 -85 -84 c-83 -82 -85 -83 -104 -66 -43
39 -38 53 50 142 76 77 99 91 99 62z m183 -110 l-132 -132 -60 -4 c-34 -2 -61
0 -61 4 0 5 43 52 95 104 90 89 100 96 182 126 49 17 92 32 98 33 5 0 -49 -58
-122 -131z m1174 -166 l32 -28 -204 -204 -204 -204 -40 19 c-23 10 -41 21 -41
24 0 7 413 421 420 421 3 -1 19 -13 37 -28z m-29 -289 c-106 -106 -199 -193
-206 -193 -7 0 -29 7 -49 15 l-37 16 198 198 199 199 44 -21 44 -21 -193 -193z
m172 -28 l-225 -225 -47 18 -47 18 194 194 195 195 68 11 c37 6 71 12 77 13 5
0 -91 -100 -215 -224z"/>
<path d="M4122 1078 c-535 -535 -992 -995 -1014 -1021 -43 -50 -44 -63 -6 -52
24 7 1853 1826 1959 1948 57 65 72 97 47 97 -7 0 -450 -438 -986 -972z"/>
<path d="M4222 978 c-480 -480 -892 -895 -914 -921 -43 -50 -44 -63 -6 -52 24
8 1653 1626 1759 1748 57 65 72 97 47 97 -7 0 -405 -393 -886 -872z"/>
<path d="M4322 878 c-754 -754 -860 -863 -849 -874 3 -3 16 -3 29 1 24 8 1454
1427 1559 1548 57 65 72 97 47 97 -7 0 -360 -348 -786 -772z"/>
<path d="M4422 778 c-658 -658 -760 -763 -749 -774 3 -3 16 -3 29 1 24 8 1255
1228 1359 1348 57 65 72 97 47 97 -6 0 -315 -303 -686 -672z"/>
<path d="M4522 678 c-664 -663 -694 -695 -620 -673 24 8 1056 1030 1159 1148
57 65 72 97 47 97 -6 0 -270 -258 -586 -572z"/>
<path d="M4623 578 c-558 -557 -594 -595 -521 -573 24 8 858 832 959 948 57
65 72 97 47 97 -6 0 -225 -213 -485 -472z"/>
<path d="M4723 478 c-452 -450 -492 -495 -421 -472 25 7 661 634 759 747 56
65 72 97 48 97 -7 0 -180 -168 -386 -372z"/>
<path d="M4823 378 c-345 -342 -390 -394 -322 -373 25 8 468 441 560 548 56
64 72 97 48 97 -6 0 -135 -123 -286 -272z"/>
<path d="M4924 278 c-185 -182 -261 -265 -250 -275 14 -14 62 23 192 149 203
197 286 298 244 298 -6 0 -90 -78 -186 -172z"/>
</g>
</svg>
